<svg width="30" height="30" viewBox="0 0 30 30" fill="none" xmlns="http://www.w3.org/2000/svg">
<rect width="30" height="30" rx="15" fill="white" fill-opacity="0.04"/>
<g clip-path="url(#clip0_3674_469)">
<path d="M15.0003 20.0868C17.8097 20.0868 20.0873 17.8093 20.0873 14.9998C20.0873 12.1903 17.8097 9.91273 15.0003 9.91273C12.1908 9.91273 9.91321 12.1903 9.91321 14.9998C9.91321 17.8093 12.1908 20.0868 15.0003 20.0868Z" stroke="#00F99E" stroke-width="1.5" stroke-linejoin="round"/>
<path d="M15.0003 7.95655C15.5405 7.95655 15.9785 7.51856 15.9785 6.97828C15.9785 6.43799 15.5405 6 15.0003 6C14.46 6 14.022 6.43799 14.022 6.97828C14.022 7.51856 14.46 7.95655 15.0003 7.95655Z" fill="#00F99E"/>
<path d="M20.6742 10.3042C21.2145 10.3042 21.6525 9.8662 21.6525 9.32592C21.6525 8.78563 21.2145 8.34764 20.6742 8.34764C20.1339 8.34764 19.6959 8.78563 19.6959 9.32592C19.6959 9.8662 20.1339 10.3042 20.6742 10.3042Z" fill="#00F99E"/>
<path d="M23.0221 15.9781C23.5624 15.9781 24.0004 15.5401 24.0004 14.9998C24.0004 14.4595 23.5624 14.0215 23.0221 14.0215C22.4818 14.0215 22.0438 14.4595 22.0438 14.9998C22.0438 15.5401 22.4818 15.9781 23.0221 15.9781Z" fill="#00F99E"/>
<path d="M20.6742 21.6521C21.2145 21.6521 21.6525 21.2141 21.6525 20.6739C21.6525 20.1336 21.2145 19.6956 20.6742 19.6956C20.1339 19.6956 19.6959 20.1336 19.6959 20.6739C19.6959 21.2141 20.1339 21.6521 20.6742 21.6521Z" fill="#00F99E"/>
<path d="M15.0003 24C15.5405 24 15.9785 23.562 15.9785 23.0217C15.9785 22.4814 15.5405 22.0434 15.0003 22.0434C14.46 22.0434 14.022 22.4814 14.022 23.0217C14.022 23.562 14.46 24 15.0003 24Z" fill="#00F99E"/>
<path d="M9.32618 21.6521C9.86646 21.6521 10.3045 21.2141 10.3045 20.6739C10.3045 20.1336 9.86646 19.6956 9.32618 19.6956C8.78589 19.6956 8.3479 20.1336 8.3479 20.6739C8.3479 21.2141 8.78589 21.6521 9.32618 21.6521Z" fill="#00F99E"/>
<path d="M6.97828 15.9781C7.51856 15.9781 7.95655 15.5401 7.95655 14.9998C7.95655 14.4595 7.51856 14.0215 6.97828 14.0215C6.43799 14.0215 6 14.4595 6 14.9998C6 15.5401 6.43799 15.9781 6.97828 15.9781Z" fill="#00F99E"/>
<path d="M9.32618 10.3042C9.86646 10.3042 10.3045 9.8662 10.3045 9.32592C10.3045 8.78563 9.86646 8.34764 9.32618 8.34764C8.78589 8.34764 8.3479 8.78563 8.3479 9.32592C8.3479 9.8662 8.78589 10.3042 9.32618 10.3042Z" fill="#00F99E"/>
</g>
<defs>
<clipPath id="clip0_3674_469">
<rect width="18" height="18" fill="white" transform="translate(6 6)"/>
</clipPath>
</defs>
</svg>
